HIERARCHY
ROOT hip
{
  OFFSET 0 90.174 2.4664
  CHANNELS 6 Xposition Yposition Zposition Zrotation Xrotation Yrotation
  JOINT abdomen
  {
    OFFSET 0 -1.186 -1.5018
    CHANNELS 6 Xposition Yposition Zposition Zrotation Xrotation Yrotation
    JOINT abdomen2
    {
      OFFSET 0 9.964 0.2134
      CHANNELS 6 Xposition Yposition Zposition Zrotation Xrotation Yrotation
      JOINT chest
      {
        OFFSET 0 13.134 -3.2573
        CHANNELS 6 Xposition Yposition Zposition Zrotation Xrotation Yrotation
        JOINT neck
        {
          OFFSET 0 20.686 -1.6905
          CHANNELS 6 Xposition Yposition Zposition Zrotation Xrotation Yrotation
          JOINT head
          {
            OFFSET 0 7.238 -0.1237
            CHANNELS 6 Xposition Yposition Zposition Zrotation Xrotation Yrotation
            End Site
            {
              OFFSET 0 0 0
            }
          }
        }
        JOINT lCollar
        {
          OFFSET 1.7069 20.075 5.0056
          CHANNELS 6 Xposition Yposition Zposition Zrotation Xrotation Yrotation
          JOINT lShldr
          {
            OFFSET 13.6458 -0.047 -4.849
            CHANNELS 6 Xposition Yposition Zposition Zrotation Xrotation Yrotation
            JOINT lForeArm
            {
              OFFSET 28.3255 -0.9759 2.2888
              CHANNELS 6 Xposition Yposition Zposition Zrotation Xrotation Yrotation
              JOINT lHand
              {
                OFFSET 22.1583 -0.53 10.8316
                CHANNELS 6 Xposition Yposition Zposition Zrotation Xrotation Yrotation
                JOINT lThumb1
                {
                  OFFSET 0.786 0.112 2.5817
                  CHANNELS 6 Xposition Yposition Zposition Zrotation Xrotation Yrotation
                  JOINT lThumb2
                  {
                    OFFSET 0.3601 -0.878 4.2331
                    CHANNELS 6 Xposition Yposition Zposition Zrotation Xrotation Yrotation
                    JOINT lThumb2_End
                    {
                      OFFSET 1.8127 -1.216 2.2227
                      CHANNELS 6 Xposition Yposition Zposition Zrotation Xrotation Yrotation
                      End Site
                      {
                        OFFSET 0.0181 -0.0122 0.0222
                      }
                    }
                  }
                }
                JOINT lCarpal1
                {
                  OFFSET 0.9571 1.114 1.7695
                  CHANNELS 6 Xposition Yposition Zposition Zrotation Xrotation Yrotation
                  JOINT lIndex1
                  {
                    OFFSET 4.1246 0.487 4.1451
                    CHANNELS 6 Xposition Yposition Zposition Zrotation Xrotation Yrotation
                    JOINT lIndex2
                    {
                      OFFSET 3.4052 -1.454 2.7682
                      CHANNELS 6 Xposition Yposition Zposition Zrotation Xrotation Yrotation
                      JOINT lIndex2_End
                      {
                        OFFSET 1.4531 -1.795 1.2713
                        CHANNELS 6 Xposition Yposition Zposition Zrotation Xrotation Yrotation
                        End Site
                        {
                          OFFSET 0.0145 -0.0179 0.0127
                        }
                      }
                    }
                  }
                  JOINT lMid1
                  {
                    OFFSET 5.6954 0.21 2.1184
                    CHANNELS 6 Xposition Yposition Zposition Zrotation Xrotation Yrotation
                    JOINT lMid2
                    {
                      OFFSET 3.9766 -1.54 2.3863
                      CHANNELS 6 Xposition Yposition Zposition Zrotation Xrotation Yrotation
                      JOINT lMid2_End
                      {
                        OFFSET 1.4042 -1.926 1.125
                        CHANNELS 6 Xposition Yposition Zposition Zrotation Xrotation Yrotation
                        End Site
                        {
                          OFFSET 0.014 -0.0193 0.0113
                        }
                      }
                    }
                  }
                }
                JOINT lCarpal2
                {
                  OFFSET 2.0956 0.66 -0.3894
                  CHANNELS 6 Xposition Yposition Zposition Zrotation Xrotation Yrotation
                  JOINT lRing1
                  {
                    OFFSET 5.0395 -0.09 2.4971
                    CHANNELS 6 Xposition Yposition Zposition Zrotation Xrotation Yrotation
                    JOINT lRing2
                    {
                      OFFSET 3.7921 -1.552 1.4806
                      CHANNELS 6 Xposition Yposition Zposition Zrotation Xrotation Yrotation
                      JOINT lRing2_End
                      {
                        OFFSET 1.4655 -1.808 0.9609
                        CHANNELS 6 Xposition Yposition Zposition Zrotation Xrotation Yrotation
                        End Site
                        {
                          OFFSET 0.0147 -0.0181 0.0096
                        }
                      }
                    }
                  }
                  JOINT lPinky1
                  {
                    OFFSET 4.9141 -1.269 0.3591
                    CHANNELS 6 Xposition Yposition Zposition Zrotation Xrotation Yrotation
                    JOINT lPinky2
                    {
                      OFFSET 3.1477 -1.685 0.8462
                      CHANNELS 6 Xposition Yposition Zposition Zrotation Xrotation Yrotation
                      JOINT lPinky2_End
                      {
                        OFFSET 0.8055 -1.585 0.7955
                        CHANNELS 6 Xposition Yposition Zposition Zrotation Xrotation Yrotation
                        End Site
                        {
                          OFFSET 0.0081 -0.0158 0.008
                        }
                      }
                    }
                  }
                }
              }
            }
          }
        }
        JOINT rCollar
        {
          OFFSET -1.7069 20.075 5.0056
          CHANNELS 6 Xposition Yposition Zposition Zrotation Xrotation Yrotation
          JOINT rShldr
          {
            OFFSET -13.6458 -0.047 -4.849
            CHANNELS 6 Xposition Yposition Zposition Zrotation Xrotation Yrotation
            JOINT rForeArm
            {
              OFFSET -28.3255 -0.9759 2.2888
              CHANNELS 6 Xposition Yposition Zposition Zrotation Xrotation Yrotation
              JOINT rHand
              {
                OFFSET -22.1583 -0.53 10.8316
                CHANNELS 6 Xposition Yposition Zposition Zrotation Xrotation Yrotation
                JOINT rThumb1
                {
                  OFFSET -0.786 0.112 2.5817
                  CHANNELS 6 Xposition Yposition Zposition Zrotation Xrotation Yrotation
                  JOINT rThumb2
                  {
                    OFFSET -0.3601 -0.878 4.2331
                    CHANNELS 6 Xposition Yposition Zposition Zrotation Xrotation Yrotation
                    JOINT rThumb2_End
                    {
                      OFFSET -1.8127 -1.216 2.2227
                      CHANNELS 6 Xposition Yposition Zposition Zrotation Xrotation Yrotation
                      End Site
                      {
                        OFFSET -0.0181 -0.0122 0.0222
                      }
                    }
                  }
                }
                JOINT rCarpal1
                {
                  OFFSET -0.9571 1.114 1.7695
                  CHANNELS 6 Xposition Yposition Zposition Zrotation Xrotation Yrotation
                  JOINT rIndex1
                  {
                    OFFSET -4.1246 0.487 4.1451
                    CHANNELS 6 Xposition Yposition Zposition Zrotation Xrotation Yrotation
                    JOINT rIndex2
                    {
                      OFFSET -3.4052 -1.454 2.7682
                      CHANNELS 6 Xposition Yposition Zposition Zrotation Xrotation Yrotation
                      JOINT rIndex2_End
                      {
                        OFFSET -1.4531 -1.795 1.2713
                        CHANNELS 6 Xposition Yposition Zposition Zrotation Xrotation Yrotation
                        End Site
                        {
                          OFFSET -0.0145 -0.018 0.0127
                        }
                      }
                    }
                  }
                  JOINT rMid1
                  {
                    OFFSET -5.6954 0.21 2.1184
                    CHANNELS 6 Xposition Yposition Zposition Zrotation Xrotation Yrotation
                    JOINT rMid2
                    {
                      OFFSET -3.9766 -1.54 2.3863
                      CHANNELS 6 Xposition Yposition Zposition Zrotation Xrotation Yrotation
                      JOINT rMid2_End
                      {
                        OFFSET -1.4042 -1.926 1.125
                        CHANNELS 6 Xposition Yposition Zposition Zrotation Xrotation Yrotation
                        End Site
                        {
                          OFFSET -0.014 -0.0193 0.0113
                        }
                      }
                    }
                  }
                }
                JOINT rCarpal2
                {
                  OFFSET -2.0956 0.66 -0.3894
                  CHANNELS 6 Xposition Yposition Zposition Zrotation Xrotation Yrotation
                  JOINT rRing1
                  {
                    OFFSET -5.0395 -0.09 2.4971
                    CHANNELS 6 Xposition Yposition Zposition Zrotation Xrotation Yrotation
                    JOINT rRing2
                    {
                      OFFSET -3.7921 -1.552 1.4806
                      CHANNELS 6 Xposition Yposition Zposition Zrotation Xrotation Yrotation
                      JOINT rRing2_End
                      {
                        OFFSET -1.4655 -1.808 0.9609
                        CHANNELS 6 Xposition Yposition Zposition Zrotation Xrotation Yrotation
                        End Site
                        {
                          OFFSET -0.0147 -0.0181 0.0096
                        }
                      }
                    }
                  }
                  JOINT rPinky1
                  {
                    OFFSET -4.9141 -1.269 0.3592
                    CHANNELS 6 Xposition Yposition Zposition Zrotation Xrotation Yrotation
                    JOINT rPinky2
                    {
                      OFFSET -3.1477 -1.685 0.8462
                      CHANNELS 6 Xposition Yposition Zposition Zrotation Xrotation Yrotation
                      JOINT rPinky2_End
                      {
                        OFFSET -0.8055 -1.585 0.7955
                        CHANNELS 6 Xposition Yposition Zposition Zrotation Xrotation Yrotation
                        End Site
                        {
                          OFFSET -0.0081 -0.0158 0.008
                        }
                      }
                    }
                  }
                }
              }
            }
          }
        }
      }
    }
  }
  JOINT lThigh
  {
    OFFSET 8.367 -8.2066 0.5982
    CHANNELS 6 Xposition Yposition Zposition Zrotation Xrotation Yrotation
    JOINT lShin
    {
      OFFSET 2.1923 -43.463 -0.4932
      CHANNELS 6 Xposition Yposition Zposition Zrotation Xrotation Yrotation
      JOINT lFoot
      {
        OFFSET 0.7333 -45.8593 -2.6451
        CHANNELS 6 Xposition Yposition Zposition Zrotation Xrotation Yrotation
        End Site
        {
          OFFSET 2.6618 -4.2699 12.3931
        }
      }
    }
  }
  JOINT rThigh
  {
    OFFSET -8.367 -8.2066 0.5982
    CHANNELS 6 Xposition Yposition Zposition Zrotation Xrotation Yrotation
    JOINT rShin
    {
      OFFSET -2.1923 -43.463 -0.4931
      CHANNELS 6 Xposition Yposition Zposition Zrotation Xrotation Yrotation
      JOINT rFoot
      {
        OFFSET -0.7333 -45.8593 -2.6451
        CHANNELS 6 Xposition Yposition Zposition Zrotation Xrotation Yrotation
        End Site
        {
          OFFSET -2.6618 -4.2699 12.3931
        }
      }
    }
  }
}
MOTION
Frames:	4
Frame Time:	0.0333333
0 90.174 2.4664 0 0 -0 0 -1.186 -1.5018 0 0 -0 0 9.964 0.2134 0 0 -0 0 13.134 -3.2573 0 0 -0 0 20.686 -1.6905 0 0 -0 0 7.238 -0.1237 0 0 -0 1.7069 20.075 5.0056 0 0 -0 13.6458 -0.047 -4.849 1.66051 0.0835086 5.75766 28.3255 -0.9759 2.2888 -0.0175111 0.895433 15.7816 22.1583 -0.53 10.8316 7.95139e-016 -1.98785e-016 -0 0.786 0.112 2.5817 5.46658e-016 -3.97569e-016 -0 0.3601 -0.878 4.2331 5.96354e-016 0 -0 1.8127 -1.216 2.2227 3.97569e-016 1.98785e-016 9.54166e-015 0.9571 1.114 1.7695 1.49089e-016 -3.97569e-016 -0 4.1246 0.487 4.1451 6.4605e-016 0 3.18055e-015 3.4052 -1.454 2.7682 5.96354e-016 0 3.18055e-015 1.4531 -1.795 1.2713 8.94531e-016 -1.98785e-016 6.36111e-015 5.6954 0.21 2.1184 6.4605e-016 0 3.18055e-015 3.9766 -1.54 2.3863 5.96354e-016 0 3.18055e-015 1.4042 -1.926 1.125 8.94531e-016 -1.98785e-016 6.36111e-015 2.0956 0.66 -0.3894 1.49089e-016 -3.97569e-016 -0 5.0395 -0.09 2.4971 6.4605e-016 0 3.18055e-015 3.7921 -1.552 1.4806 5.96354e-016 0 3.18055e-015 1.4655 -1.808 0.9609 8.94531e-016 -1.98785e-016 6.36111e-015 4.9141 -1.269 0.3591 6.4605e-016 0 3.18055e-015 3.1477 -1.685 0.8462 5.96354e-016 0 3.18055e-015 0.8055 -1.585 0.7955 8.94531e-016 -1.98785e-016 6.36111e-015 -1.7069 20.075 5.0056 0 0 -0 -13.6458 -0.047 -4.849 -1.4496 0.0636048 -5.0245 -28.3255 -0.9759 2.2888 -1.74811 1.20616 -16.8394 -22.1583 -0.53 10.8316 -1.19271e-015 1.98785e-016 -3.18055e-015 -0.786 0.112 2.5817 -3.97569e-016 1.98785e-016 -3.18055e-015 -0.3601 -0.878 4.2331 -2.98177e-016 1.98785e-016 -3.18055e-015 -1.8127 -1.216 2.2227 -2.98177e-016 3.97569e-016 -0 -0.9571 1.114 1.7695 4.96962e-016 0 -6.36111e-015 -4.1246 0.487 4.1451 -9.93923e-017 3.97569e-016 -0 -3.4052 -1.454 2.7682 -8.94531e-016 5.96354e-016 -0 -1.4531 -1.795 1.2713 -3.97569e-016 3.97569e-016 -0 -5.6954 0.21 2.1184 -9.93923e-017 3.97569e-016 -0 -3.9766 -1.54 2.3863 -8.94531e-016 5.96354e-016 -0 -1.4042 -1.926 1.125 -3.97569e-016 3.97569e-016 -0 -2.0956 0.66 -0.3894 4.96962e-016 0 -6.36111e-015 -5.0395 -0.09 2.4971 -9.93923e-017 3.97569e-016 -0 -3.7921 -1.552 1.4806 -8.94531e-016 5.96354e-016 -0 -1.4655 -1.808 0.9609 -3.97569e-016 3.97569e-016 -0 -4.9141 -1.269 0.3592 -9.93923e-017 3.97569e-016 -0 -3.1477 -1.685 0.8462 -8.94531e-016 5.96354e-016 -0 -0.8055 -1.585 0.7955 -3.97569e-016 3.97569e-016 -0 8.367 -8.2066 0.5982 -4.66115 -1.03232 0.120763 2.1923 -43.463 -0.4932 0.00990601 1.55097 0.177175 0.7333 -45.8593 -2.6451 4.65196 -0.54114 -0.255042 -8.367 -8.2066 0.5982 4.66115 -1.03222 -0.120763 -2.1923 -43.463 -0.4931 -0.00990459 1.5509 -0.177176 -0.7333 -45.8593 -2.6451 -4.65196 -0.541171 0.255041 
-51.2493 76.2666 5.71433 3.50018 -11.0067 100.685 1.77636e-015 -1.186 -1.5018 1.09467 4.33215 -2.68764 1.77636e-015 9.964 0.2134 2.40274 8.60711 -5.48136 1.77636e-015 13.134 -3.2573 2.40274 8.6071 -5.48136 0 20.686 -1.6905 -0.0535428 10.3022 8.17721 0 7.238 -0.1237 6.5095 1.13634 40.8686 1.7069 20.075 5.0056 7.61821 11.85 10.2311 13.6458 -0.047 -4.849 20.37 -15.2774 -19.2429 28.3255 -0.9759 2.2888 13.448 -6.76288 -38.216 22.1583 -0.53 10.8316 -61.0473 -17.4651 -54.8603 0.786 0.112 2.5817 -1.23246e-014 -6.36111e-015 -3.18055e-015 0.3601 -0.878 4.2331 -7.55382e-015 0 -0 1.8127 -1.216 2.2227 -7.15625e-015 0 -0 0.9571 1.114 1.7695 -2.38542e-015 -3.18055e-015 -6.36111e-015 4.1246 0.487 4.1451 -0 0 3.18055e-015 3.4052 -1.454 2.7682 -9.14409e-015 -6.36111e-015 -1.59028e-015 1.4531 -1.795 1.2713 -1.35174e-014 -9.54166e-015 -0 5.6954 0.21 2.1184 -0 0 3.18055e-015 3.9766 -1.54 2.3863 -9.14409e-015 -6.36111e-015 -1.59028e-015 1.4042 -1.926 1.125 -1.35174e-014 -9.54166e-015 -0 2.0956 0.66 -0.3894 -2.38542e-015 -3.18055e-015 -6.36111e-015 5.0395 -0.09 2.4971 -0 0 3.18055e-015 3.7921 -1.552 1.4806 -9.14409e-015 -6.36111e-015 -1.59028e-015 1.4655 -1.808 0.9609 -1.35174e-014 -9.54166e-015 -0 4.9141 -1.269 0.3591 -0 0 3.18055e-015 3.1477 -1.685 0.8462 -9.14409e-015 -6.36111e-015 -1.59028e-015 0.8055 -1.585 0.7955 -1.35174e-014 -9.54166e-015 -0 -1.7069 20.075 5.0056 -45.2981 13.0285 33.6271 -13.6458 -0.047 -4.849 21.2084 10.9264 68.1199 -28.3255 -0.9759 2.2888 -64.0259 -37.6955 22.7351 -22.1583 -0.53 10.8316 -42.6722 -14.1314 11.9963 -0.786 0.112 2.5817 -2.71888e-006 1.4387e-006 8.13887e-007 -0.3601 -0.878 4.2331 -3.43823e-006 7.92617e-008 1.93745e-007 -1.8127 -1.216 2.2227 1.4387e-006 2.71888e-006 1.24028e-006 -0.9571 1.114 1.7695 -3.18055e-015 0 3.18055e-015 -4.1246 0.487 4.1451 -2.71888e-006 1.4387e-006 8.13887e-007 -3.4052 -1.454 2.7682 -3.43823e-006 7.92617e-008 1.93745e-007 -1.4531 -1.795 1.2713 1.4387e-006 2.71888e-006 1.24028e-006 -5.6954 0.21 2.1184 -2.71888e-006 1.4387e-006 8.13887e-007 -3.9766 -1.54 2.3863 -3.43823e-006 7.92617e-008 1.93745e-007 -1.4042 -1.926 1.125 1.4387e-006 2.71888e-006 1.24028e-006 -2.0956 0.66 -0.3894 -3.18055e-015 0 3.18055e-015 -5.0395 -0.09 2.4971 -2.71888e-006 1.4387e-006 8.13887e-007 -3.7921 -1.552 1.4806 -3.43823e-006 7.92617e-008 1.93745e-007 -1.4655 -1.808 0.9609 1.4387e-006 2.71888e-006 1.24028e-006 -4.9141 -1.269 0.3592 -2.71888e-006 1.4387e-006 8.13887e-007 -3.1477 -1.685 0.8462 -3.43823e-006 7.92617e-008 1.93745e-007 -0.8055 -1.585 0.7955 1.4387e-006 2.71888e-006 1.24028e-006 8.367 -8.2066 0.5982 -84.5596 -54.2601 -75.8947 2.1923 -43.463 -0.4932 -77.0693 59.5851 75.2647 0.7333 -45.8593 -2.6451 -4.53407 2.27556 6.94772 -8.367 -8.2066 0.5982 -22.3378 -69.3643 -35.624 -2.1923 -43.463 -0.4931 -10.6614 75.1228 17.7986 -0.7333 -45.8593 -2.6451 -24.4729 9.33874 -8.33842 
-51.2493 76.2666 5.71433 3.50018 -11.0067 100.685 1.77636e-015 -1.186 -1.5018 1.09467 4.33215 -2.68764 1.77636e-015 9.964 0.2134 2.40274 8.60711 -5.48136 1.77636e-015 13.134 -3.2573 2.40274 8.6071 -5.48136 0 20.686 -1.6905 -0.0535428 10.3022 8.17721 0 7.238 -0.1237 6.50178 1.15091 40.9672 1.7069 20.075 5.0056 7.61821 11.85 10.2311 13.6458 -0.047 -4.849 20.37 -15.2774 -19.2429 28.3255 -0.9759 2.2888 13.4481 -6.76288 -38.216 22.1583 -0.53 10.8316 -61.0473 -17.4651 -54.8603 0.786 0.112 2.5817 1.19271e-015 1.27222e-014 -0 0.3601 -0.878 4.2331 -7.95139e-016 3.18055e-015 -3.18055e-015 1.8127 -1.216 2.2227 -5.1684e-015 9.54166e-015 3.18055e-015 0.9571 1.114 1.7695 1.98785e-015 9.54166e-015 1.59028e-015 4.1246 0.487 4.1451 3.97569e-016 6.36111e-015 4.77083e-015 3.4052 -1.454 2.7682 3.97569e-015 6.36111e-015 -4.77083e-015 1.4531 -1.795 1.2713 -2.38542e-015 0 -3.18055e-015 5.6954 0.21 2.1184 3.97569e-016 6.36111e-015 4.77083e-015 3.9766 -1.54 2.3863 3.97569e-015 6.36111e-015 -4.77083e-015 1.4042 -1.926 1.125 -2.38542e-015 0 -3.18055e-015 2.0956 0.66 -0.3894 1.98785e-015 9.54166e-015 1.59028e-015 5.0395 -0.09 2.4971 3.97569e-016 6.36111e-015 4.77083e-015 3.7921 -1.552 1.4806 3.97569e-015 6.36111e-015 -4.77083e-015 1.4655 -1.808 0.9609 -2.38542e-015 0 -3.18055e-015 4.9141 -1.269 0.3591 3.97569e-016 6.36111e-015 4.77083e-015 3.1477 -1.685 0.8462 3.97569e-015 6.36111e-015 -4.77083e-015 0.8055 -1.585 0.7955 -2.38542e-015 0 -3.18055e-015 -1.7069 20.075 5.0056 -45.2981 13.0285 33.6271 -13.6458 -0.047 -4.849 21.7226 11.0982 67.8262 -28.3255 -0.9759 2.2888 -62.8208 -37.0239 23.6665 -22.1583 -0.53 10.8316 -42.6722 -14.1314 11.9964 -0.786 0.112 2.5817 -0 -3.18055e-015 -0 -0.3601 -0.878 4.2331 6.36111e-015 0 -0 -1.8127 -1.216 2.2227 -3.18055e-015 -3.18055e-015 -3.18055e-015 -0.9571 1.114 1.7695 -0 -3.18055e-015 -0 -4.1246 0.487 4.1451 2.22639e-014 0 9.54166e-015 -3.4052 -1.454 2.7682 -6.36111e-015 6.36111e-015 -0 -1.4531 -1.795 1.2713 3.18055e-015 -3.18055e-015 3.18055e-015 -5.6954 0.21 2.1184 2.22639e-014 0 9.54166e-015 -3.9766 -1.54 2.3863 -6.36111e-015 6.36111e-015 -0 -1.4042 -1.926 1.125 3.18055e-015 -3.18055e-015 3.18055e-015 -2.0956 0.66 -0.3894 -0 -3.18055e-015 -0 -5.0395 -0.09 2.4971 2.22639e-014 0 9.54166e-015 -3.7921 -1.552 1.4806 -6.36111e-015 6.36111e-015 -0 -1.4655 -1.808 0.9609 3.18055e-015 -3.18055e-015 3.18055e-015 -4.9141 -1.269 0.3592 2.22639e-014 0 9.54166e-015 -3.1477 -1.685 0.8462 -6.36111e-015 6.36111e-015 -0 -0.8055 -1.585 0.7955 3.18055e-015 -3.18055e-015 3.18055e-015 8.367 -8.2066 0.5982 -84.5596 -54.2601 -75.8947 2.1923 -43.463 -0.4932 -77.0693 59.5851 75.2647 0.7333 -45.8593 -2.6451 -4.53407 2.27556 6.94772 -8.367 -8.2066 0.5982 -22.3378 -69.3643 -35.624 -2.1923 -43.463 -0.4931 -10.6614 75.1228 17.7985 -0.7333 -45.8593 -2.6451 -24.4729 9.33875 -8.3384 
-51.2493 76.2666 5.71434 3.50018 -11.0067 100.685 3.55271e-015 -1.186 -1.5018 1.09468 4.33215 -2.68764 -3.55271e-015 9.964 0.2134 2.40274 8.60711 -5.48135 0 13.134 -3.2573 2.40275 8.6071 -5.48137 0 20.686 -1.6905 -0.0536614 10.3021 8.17728 8.88178e-016 7.238 -0.1237 6.49404 1.16548 41.0658 1.7069 20.075 5.0056 7.61821 11.85 10.2311 13.6458 -0.047 -4.849 20.37 -15.2774 -19.2429 28.3255 -0.9759 2.2888 13.4481 -6.76288 -38.216 22.1583 -0.53 10.8316 -61.0473 -17.4651 -54.8603 0.786 0.112 2.5817 -3.97569e-016 3.18055e-015 3.18055e-015 0.3601 -0.878 4.2331 -3.97569e-015 -3.18055e-015 4.77083e-015 1.8127 -1.216 2.2227 -8.34896e-015 3.18055e-015 1.59028e-015 0.9571 1.114 1.7695 -7.95139e-016 3.18055e-015 1.59028e-015 4.1246 0.487 4.1451 -5.1684e-015 0 1.11319e-014 3.4052 -1.454 2.7682 2.38542e-015 -3.18055e-015 -0 1.4531 -1.795 1.2713 -3.18055e-015 0 -0 5.6954 0.21 2.1184 -5.1684e-015 0 1.11319e-014 3.9766 -1.54 2.3863 2.38542e-015 -3.18055e-015 -0 1.4042 -1.926 1.125 -3.18055e-015 0 -0 2.0956 0.66 -0.3894 -7.95139e-016 3.18055e-015 1.59028e-015 5.0395 -0.09 2.4971 -5.1684e-015 0 1.11319e-014 3.7921 -1.552 1.4806 2.38542e-015 -3.18055e-015 -0 1.4655 -1.808 0.9609 -3.18055e-015 0 -0 4.9141 -1.269 0.3591 -5.1684e-015 0 1.11319e-014 3.1477 -1.685 0.8462 2.38542e-015 -3.18055e-015 -0 0.8055 -1.585 0.7955 -3.18055e-015 0 -0 -1.7069 20.075 5.0056 -45.2981 13.0285 33.6271 -13.6458 -0.047 -4.849 22.2385 11.2676 67.5304 -28.3255 -0.9759 2.2888 -61.6357 -36.3345 24.5752 -22.1583 -0.53 10.8316 -42.6722 -14.1315 11.9964 -0.786 0.112 2.5817 3.53113e-031 -3.18055e-015 6.36111e-015 -0.3601 -0.878 4.2331 -9.54166e-015 3.18055e-015 -3.18055e-015 -1.8127 -1.216 2.2227 6.36111e-015 9.54166e-015 -0 -0.9571 1.114 1.7695 1.76556e-031 -3.18055e-015 3.18055e-015 -4.1246 0.487 4.1451 -0 0 6.36111e-015 -3.4052 -1.454 2.7682 -6.36111e-015 3.18055e-015 3.18055e-015 -1.4531 -1.795 1.2713 0 6.36111e-015 -0 -5.6954 0.21 2.1184 -0 0 6.36111e-015 -3.9766 -1.54 2.3863 -6.36111e-015 3.18055e-015 3.18055e-015 -1.4042 -1.926 1.125 0 6.36111e-015 -0 -2.0956 0.66 -0.3894 1.76556e-031 -3.18055e-015 3.18055e-015 -5.0395 -0.09 2.4971 -0 0 6.36111e-015 -3.7921 -1.552 1.4806 -6.36111e-015 3.18055e-015 3.18055e-015 -1.4655 -1.808 0.9609 0 6.36111e-015 -0 -4.9141 -1.269 0.3592 -0 0 6.36111e-015 -3.1477 -1.685 0.8462 -6.36111e-015 3.18055e-015 3.18055e-015 -0.8055 -1.585 0.7955 0 6.36111e-015 -0 8.367 -8.2066 0.5982 -84.5596 -54.2601 -75.8947 2.1923 -43.463 -0.4932 -77.0692 59.5851 75.2646 0.7333 -45.8593 -2.6451 -4.53408 2.27556 6.94775 -8.367 -8.2066 0.5982 -22.3378 -69.3643 -35.624 -2.1923 -43.463 -0.4931 -10.6614 75.1228 17.7986 -0.7333 -45.8593 -2.6451 -24.4729 9.33873 -8.33841 
